# AST/ASF file generated using VICON BodyLanguage
# -----------------------------------------------
:version 1.10
:name VICON
:units
  mass 1.0
  length 0.45
  angle deg
:documentation
   .ast/.asf automatically generated from VICON data using
   VICON BodyBuilder and BodyLanguage model FoxedUp or BRILLIANT.MOD
:root
   order TX TY TZ RX RY RZ
   axis XYZ
   position 0 0 0  
   orientation 0 0 0 
:bonedata
  begin
     id 1 
     name lhipjoint
     direction 0.693937 -0.600361 0.397515 
     length 2.37164 
     axis 0 0 0  XYZ
  end
  begin
     id 2 
     name lfemur
     direction 0.34202 -0.939693 0  
     length 6.18497  
     axis 0 0 20  XYZ
    dof rx ry rz
    limits (-160.0 20.0)
           (-70.0 70.0)
           (-60.0 70.0)
  end
  begin
     id 3 
     name ltibia
     direction 0.34202 -0.939693 0   
     length 6.91601   
     axis 0 0 20   XYZ
    dof rx
    limits (-10.0 170.0)
  end
  begin
     id 4 
     name lfoot
     direction 0.0978718 -0.2689 0.958182   
     length 1.81453   
     axis -90 7.62852e-016 20   XYZ
    dof rx rz
    limits (-45.0 90.0)
           (-70.0 20.0)
  end
  begin
     id 5 
     name ltoes
     direction 1.53569e-011 -4.21951e-011 1   
     length 0.912052   
     axis -90 7.62852e-016 20   XYZ
    dof rx
    limits (-90.0 20.0)
  end
  begin
     id 6 
     name rhipjoint
     direction -0.643996 -0.637876 0.422354   
     length 2.23216  
     axis 0 0 0  XYZ 
  end
  begin
     id 7 
     name rfemur
     direction -0.34202 -0.939693 0   
     length 6.15404   
     axis 0 0 -20   XYZ
    dof rx ry rz
    limits (-160.0 20.0)
           (-70.0 70.0)
           (-70.0 60.0)
  end
  begin
     id 8 
     name rtibia
     direction -0.34202 -0.939693 0   
     length 6.86744   
     axis 0 0 -20   XYZ
    dof rx
    limits (-10.0 170.0)
 end
 begin
     id 9 
     name rfoot
     direction -0.118701 -0.326127 0.937844   
     length 1.9243  
     axis -90 -7.62852e-016 -20   XYZ
    dof rx rz
    limits (-45.0 90.0)
           (-20.0 70.0)
  end
  begin
     id 10 
     name rtoes
     direction -1.5356e-011 -4.2181e-011 1   
     length 0.958865   
     axis -90 -7.62852e-016 -20   XYZ
    dof rx
    limits (-90.0 20.0)
  end
  begin
     id 11 
     name lowerback
     direction 0.0310826 0.968686 -0.246334   
     length 2.00021   
     axis 0 0 0   XYZ
    dof rx ry rz
    limits (-20.0 45.0)
           (-30.0 30.0)
           (-30.0 30.0)
  end
  begin
     id 12 
     name upperback
     direction -0.0152834 0.999474 -0.0286152   
     length 2.03728   
     axis 0 0 0   XYZ
    dof rx ry rz
    limits (-20.0 45.0)
           (-30.0 30.0)
           (-30.0 30.0)
  end
  begin
     id 13 
     name thorax
     direction -0.0323701 0.996236 0.0804149   
     length 2.16   
     axis 0 0 0   XYZ
    dof rx ry rz
    limits (-20.0 45.0)
           (-30.0 30.0)
           (-30.0 30.0)
  end
  begin
     id 14 
     name lowerneck
     direction 0.0307935 0.982251 0.185027   
     length 1.43558   
     axis 0 0 0   XYZ
    dof rx ry rz
    limits (-20.0 45.0)
           (-30.0 30.0)
           (-30.0 30.0)
  end
  begin
     id 15 
     name upperneck
     direction -0.0927153 0.994775 0.0427454   
     length 1.44603   
     axis 0 0 0   XYZ
    dof rx ry rz
    limits (-20.0 45.0)
           (-30.0 30.0)
           (-30.0 30.0)
  end
  begin
     id 16
     name head
     direction -0.0341265 0.999406 -0.00472033  
     length 1.45931  
     axis 0 0 0   XYZ
    dof rx ry rz
    limits (-20.0 45.0)
           (-30.0 30.0)
           (-30.0 30.0)
  end
  begin
     id 17 
     name lclavicle
     direction 0.820755 0.555306 -0.134151  
     length 2.66075  
     axis 0 0 0   XYZ
    dof ry rz
    limits (-20.0 10.0)
           (0.0 20.0)
  end
  begin
     id 18 
     name lhumerus
     direction 1 -4.48971e-011 5.24853e-027   
     length 5.0546   
     axis -180 -30 -90   XYZ
    dof rx ry rz
    limits (-60.0 90.0)
           (-90.0 90.0)
           (-90.0 90.0)
  end
  begin
     id 19
     name lradius
     direction 1 -4.48971e-011 2.76575e-028   
     length 3.39013   
     axis -180 -30 -90   XYZ
    dof rx
    limits (-10.0 170.0)
  end
  begin
     id 20
     name lwrist
     direction 1 -4.48939e-011 -2.27826e-027   
     length 1.69507   
     axis 2.17013e-015 90 90   XYZ
    dof ry
    limits (-180.0 0.0)
 end
  begin
     id 21 
     name lhand
     direction 1 -4.49009e-011 -4.55652e-027   
     length 0.572425   
     axis 2.90745e-015 90 90   XYZ
    dof rx rz
    limits (-90.0 90.0)
           (-45.0 45.0)
  end
  begin
     id 22 
     name lfingers
     direction 1 -4.48955e-011 -9.11303e-027   
     length 0.461504   
     axis 5.81489e-015 90 90   XYZ
    dof rx
    limits (0.0 90.0)
  end
  begin
     id 23
     name lthumb
     direction 0.707107 -6.34929e-011 0.707107   
     length 0.66263   
     axis -90 45 2.85299e-015   XYZ
    dof rx rz
    limits (-45.0 45.0)
           (-45.0 45.0)
  end
  begin
     id 24 
     name rclavicle
     direction -0.754477 0.632921 -0.173712   
     length 2.73081  
     axis 0 0 0   XYZ 
    dof ry rz
    limits (-10.0 20.0)
           (-20.0 0.0)
  end
  begin
     id 25 
     name rhumerus
     direction -1 -4.48969e-011 5.1496e-027  
     length 5.0701   
     axis -180 30 90   XYZ
    dof rx ry rz
    limits (-90.0 60.0)
           (-90.0 90.0)
           (-90.0 90.0)
  end
  begin
     id 26 
     name rradius
     direction -1 -4.48967e-011 -7.15624e-028   
     length 3.14957   
     axis -180 30 90   XYZ
    dof rx
    limits (-10.0 170.0)
  end
  begin
     id 27 
     name rwrist
     direction -1 -4.48938e-011 -2.27826e-027   
     length 1.57479   
     axis 2.17013e-015 -90 -90   XYZ
    dof ry
    limits (-180.0 0.0)
  end
  begin
     id 28
     name rhand
     direction -1 -4.49008e-011 -4.55652e-027   
     length 0.718191   
     axis 2.90745e-015 -90 -90   XYZ
    dof rx rz
    limits (-90.0 90.0)
           (-45.0 45.0)
  end
  begin
     id 29
     name rfingers
     direction -1 -4.48953e-011 -9.11303e-027   
     length 0.579024   
     axis 5.81489e-015 -90 -90   XYZ
    dof rx
    limits (0.0 90.0)
  end
  begin
     id 30
     name rthumb
     direction -0.707107 -6.34937e-011 0.707107   
     length 0.831366   
     axis -90 -45 -2.85299e-015   XYZ
    dof rx rz
    limits (-45.0 45.0)
           (-45.0 45.0)
  end
:hierarchy
  begin
    root lhipjoint rhipjoint lowerback
    lhipjoint lfemur
    lfemur ltibia
    ltibia lfoot
    lfoot ltoes
    rhipjoint rfemur
    rfemur rtibia
    rtibia rfoot
    rfoot rtoes
    lowerback upperback
    upperback thorax
    thorax lowerneck lclavicle rclavicle
    lowerneck upperneck
    upperneck head
    lclavicle lhumerus
    lhumerus lradius
    lradius lwrist
    lwrist lhand lthumb
    lhand lfingers
    rclavicle rhumerus
    rhumerus rradius
    rradius rwrist
    rwrist rhand rthumb
    rhand rfingers
  end

#!OML:ASF H:\Male1\Project 1\Capture day 1\Session 1\Male1.ASF
:FULLY-SPECIFIED
:DEGREES
35
root 9.3524 15.1084 -2.85236 -2.19576 -70.5852 0.921089
lowerback 5.41506 0.574734 4.80327
upperback 5.03863 0.822423 0.014129
thorax 2.24434 0.509347 -2.70604
lowerneck -8.38028 4.85888 9.34624
upperneck 26.5516 6.47762 -7.15221
head 10.3931 2.95607 -3.4311
rclavicle 7.07673e-014 9.54166e-015
rhumerus -36.7374 5.22894 -87.0045
rradius 48.395
rwrist -9.78332
rhand -14.5726 -0.977998
rfingers 7.12502
rthumb 11.577 -30.6382
lclavicle 7.07673e-014 9.54166e-015
lhumerus -35.1197 5.7088 84.4704
lradius 36.2571
lwrist 3.07817
lhand -18.8363 11.8095
lfingers 7.12502
lthumb 7.4632 41.6578
rfemur -7.39359 9.63301 28.2604
rtibia 33.39
rfoot -39.0707 -29.3615
rtoes -5.16721
lfemur -12.2431 -12.4668 -22.1304
ltibia 43.9208
lfoot -23.3635 21.1152
ltoes -14.2344
36
root 9.35913 15.1148 -2.88076 -2.8371 -70.2584 1.47009
lowerback 5.83333 0.512944 4.9382
upperback 5.25038 0.751946 0.0496221
thorax 2.22941 0.476768 -2.74628
lowerneck -8.30978 4.87084 9.41394
upperneck 26.3278 6.53393 -7.33581
head 10.3107 2.97432 -3.49856
rclavicle 1.78906e-014 -8.74653e-015
rhumerus -36.7559 6.03785 -87.1938
rradius 49.9353
rwrist -10.6559
rhand -14.0834 -0.406896
rfingers 7.12502
rthumb 12.0487 -30.04
lclavicle 1.78906e-014 -8.74653e-015
lhumerus -34.9835 5.59923 84.6535
lradius 36.5227
lwrist 3.07003
lhand -18.8532 11.9978
lfingers 7.12502
lthumb 7.44681 41.8468
rfemur -7.25788 9.33379 28.1332
rtibia 33.2112
rfoot -38.9276 -29.3942
rtoes -4.88807
lfemur -13.7877 -11.5428 -21.9223
ltibia 46.264
lfoot -21.4405 19.8538
ltoes -15.4226
37
root 9.36388 15.1255 -2.9102 -3.47617 -69.9525 1.99621
lowerback 6.24627 0.476038 5.03873
upperback 5.46574 0.713264 0.0887596
thorax 2.22359 0.459204 -2.76402
lowerneck -8.22888 4.88049 9.46632
upperneck 26.1553 6.57286 -7.45204
head 10.2412 2.98995 -3.54228
rclavicle 9.64106e-015 1.98785e-015
rhumerus -36.6462 6.67218 -87.3155
rradius 51.2428
rwrist -11.3939
rhand -13.6827 -0.00803784
rfingers 7.12502
rthumb 12.435 -29.6181
lclavicle 9.64106e-015 1.98785e-015
lhumerus -34.8301 5.43222 84.8373
lradius 36.7811
lwrist 3.07234
lhand -18.7663 12.1303
lfingers 7.12502
lthumb 7.53073 41.9763
rfemur -7.0208 9.12019 28.0312
rtibia 32.8924
rfoot -38.7623 -29.4824
rtoes -4.43436
lfemur -15.4412 -10.5371 -21.6899
ltibia 48.7733
lfoot -19.3973 18.4178
ltoes -16.3328
38
root 9.36639 15.1401 -2.94052 -4.06061 -69.6787 2.44209
lowerback 6.66357 0.458188 5.11729
upperback 5.67872 0.699389 0.143705
thorax 2.21487 0.452844 -2.75387
lowerneck -8.14101 4.89756 9.48077
upperneck 26.0278 6.61309 -7.50277
head 10.1837 3.00903 -3.55669
rclavicle -2.98177e-016 6.75868e-015
rhumerus -36.4346 7.19099 -87.3796
rradius 52.3469
rwrist -11.9227
rhand -13.4246 0.227609
rfingers 7.12502
rthumb 12.6839 -29.3672
lclavicle -2.98177e-016 6.75868e-015
lhumerus -34.7 5.22775 85.0192
lradius 37.0684
lwrist 3.1012
lhand -18.6024 12.1565
lfingers 7.12502
lthumb 7.68888 41.9967
rfemur -6.67505 8.96914 27.9747
rtibia 32.4237
rfoot -38.5564 -29.5832
rtoes -3.84966
lfemur -17.2027 -9.43159 -21.422
ltibia 51.4497
lfoot -17.3464 16.8615
ltoes -16.7602
39
root 9.36698 15.1579 -2.97148 -4.57145 -69.4285 2.78375
lowerback 7.09861 0.449838 5.187
upperback 5.88833 0.698715 0.217676
thorax 2.19414 0.451871 -2.71975
lowerneck -8.05221 4.92497 9.47671
upperneck 25.9253 6.6659 -7.5312
head 10.135 3.03422 -3.55891
rclavicle -4.21423e-014 0
rhumerus -36.1418 7.62784 -87.3945
rradius 53.296
rwrist -12.1822
rhand -13.2692 0.275038
rfingers 7.12502
rthumb 12.8337 -29.3104
lclavicle -4.21423e-014 0
lhumerus -34.6116 5.01054 85.1902
lradius 37.3942
lwrist 3.14384
lhand -18.4187 12.102
lfingers 7.12502
lthumb 7.86621 41.9357
rfemur -6.22102 8.86005 27.9726
rtibia 31.8109
rfoot -38.318 -29.6985
rtoes -3.25512
lfemur -19.0783 -8.23634 -21.1291
ltibia 54.3125
lfoot -15.5537 15.3272
ltoes -16.9543
40
root 9.36638 15.1775 -3.00264 -4.98714 -69.1892 3.01568
lowerback 7.54885 0.445279 5.26957
upperback 6.08419 0.705543 0.300707
thorax 2.15219 0.454076 -2.68404
lowerneck -7.96097 4.95519 9.49271
upperneck 25.8281 6.72365 -7.57677
head 10.0899 3.06182 -3.57038
rclavicle -3.37934e-014 -1.27222e-014
rhumerus -35.8009 7.99193 -87.3789
rradius 54.1442
rwrist -12.1451
rhand -13.1608 0.113735
rfingers 7.12502
rthumb 12.9382 -29.4651
lclavicle -3.37934e-014 -1.27222e-014
lhumerus -34.5666 4.79045 85.3333
lradius 37.7346
lwrist 3.17454
lhand -18.2875 12.0281
lfingers 7.12502
lthumb 7.99281 41.857
rfemur -5.68462 8.78171 28.0232
rtibia 31.0656
rfoot -38.0345 -29.8838
rtoes -2.72832
lfemur -21.0975 -6.97385 -20.8338
ltibia 57.386
lfoot -14.214 14.008
ltoes -17.0336
41
root 9.3651 15.1982 -3.03381 -5.27351 -68.9565 3.10182
lowerback 8.01891 0.442352 5.39413
upperback 6.26679 0.719258 0.386065
thorax 2.08785 0.460228 -2.67015
lowerneck -7.86088 4.97586 9.5452
upperneck 25.7039 6.76795 -7.64754
head 10.0343 3.08463 -3.59843
rclavicle -3.02153e-014 1.51076e-014
rhumerus -35.4291 8.29368 -87.3481
rradius 54.9274
rwrist -11.8215
rhand -13.0976 -0.214223
rfingers 7.12502
rthumb 12.9991 -29.7892
lclavicle -3.02153e-014 1.51076e-014
lhumerus -34.5468 4.56792 85.4348
lradius 38.0504
lwrist 3.18487
lhand -18.2485 11.9578
lfingers 7.12502
lthumb 8.0305 41.7852
rfemur -5.07681 8.74992 28.1444
rtibia 30.2074
rfoot -37.722 -30.1831
rtoes -2.2479
lfemur -23.2719 -5.65614 -20.5439
ltibia 60.6882
lfoot -13.4553 13.0614
ltoes -17.2019
42
root 9.36327 15.2211 -3.06463 -5.52313 -68.7188 3.14721
lowerback 8.49574 0.436101 5.53166
upperback 6.44351 0.731234 0.458905
thorax 2.01493 0.465865 -2.67659
lowerneck -7.74812 4.98183 9.62403
upperneck 25.5187 6.79103 -7.73567
head 9.95382 3.09939 -3.63874
rclavicle -5.66536e-014 1.03368e-014
rhumerus -35.0284 8.55461 -87.3075
rradius 55.6742
rwrist -11.2627
rhand -13.0447 -0.63734
rfingers 7.12502
rthumb 13.0501 -30.2091
lclavicle -5.66536e-014 1.03368e-014
lhumerus -34.5258 4.35266 85.4884
lradius 38.3155
lwrist 3.1776
lhand -18.2958 11.9482
lfingers 7.12502
lthumb 7.98485 41.7774
rfemur -4.40696 8.75195 28.2904
rtibia 29.2447
rfoot -37.3669 -30.6159
rtoes -1.84132
lfemur -25.6017 -4.30733 -20.3151
ltibia 64.2132
lfoot -13.3069 12.54
ltoes -17.3323
43
root 9.36084 15.2464 -3.09498 -5.87159 -68.468 3.30855
lowerback 8.97595 0.428611 5.63494
upperback 6.60769 0.742176 0.495775
thorax 1.92751 0.470254 -2.70133
lowerneck -7.62625 4.97111 9.71115
upperneck 25.2765 6.78559 -7.81138
head 9.84838 3.10387 -3.67833
rclavicle 1.78906e-014 -5.56597e-015
rhumerus -34.6274 8.78412 -87.2654
rradius 56.4127
rwrist -10.5638
rhand -13.0166 -1.05285
rfingers 7.12502
rthumb 13.0772 -30.6229
lclavicle 1.78906e-014 -5.56597e-015
lhumerus -34.4978 4.12776 85.4913
lradius 38.5204
lwrist 3.17094
lhand -18.394 12.048
lfingers 7.12502
lthumb 7.89007 41.8808
rfemur -3.68749 8.7697 28.3914
rtibia 28.1798
rfoot -36.923 -31.1806
rtoes -1.53383
lfemur -28.0856 -2.97138 -20.2197
ltibia 67.9348
lfoot -13.6696 12.4191
ltoes -17.21
44
root 9.35708 15.2754 -3.12536 -6.33758 -68.2065 3.59968
lowerback 9.45318 0.427058 5.68778
upperback 6.77128 0.758664 0.497107
thorax 1.84174 0.476639 -2.73522
lowerneck -7.52506 4.94497 9.78198
upperneck 24.9998 6.74975 -7.84844
head 9.72989 3.09669 -3.70372
rclavicle -3.95581e-014 1.03368e-014
rhumerus -34.2236 9.00399 -87.2157
rradius 57.1573
rwrist -9.83984
rhand -13.0466 -1.37827
rfingers 7.12502
rthumb 13.0482 -30.9501
lclavicle -3.95581e-014 1.03368e-014
lhumerus -34.4305 3.88204 85.4527
lradius 38.6387
lwrist 3.16914
lhand -18.4961 12.162
lfingers 7.12502
lthumb 7.79154 41.9984
rfemur -2.90867 8.80384 28.4423
rtibia 27.0125
rfoot -36.3915 -31.8332
rtoes -1.28444
lfemur -30.7066 -1.6363 -20.2533
ltibia 71.8019
lfoot -14.3467 12.5532
ltoes -16.7335
45
root 9.35135 15.3077 -3.15561 -6.93005 -67.9312 4.02522
lowerback 9.92412 0.435674 5.68186
upperback 6.93751 0.784401 0.465564
thorax 1.76286 0.486704 -2.77121
lowerneck -7.45958 4.9055 9.81653
upperneck 24.7187 6.68576 -7.83134
head 9.61116 3.07783 -3.70612
rclavicle -2.78299e-014 -3.97569e-015
rhumerus -33.8304 9.22408 -87.1489
rradius 57.9339
rwrist -9.18776
rhand -13.1748 -1.55467
rfingers 7.12502
rthumb 12.9247 -31.1344
lclavicle -2.78299e-014 -3.97569e-015
lhumerus -34.3086 3.61575 85.3765
lradius 38.6241
lwrist 3.14563
lhand -18.5883 12.0769
lfingers 7.12502
lthumb 7.70257 41.9166
rfemur -2.06368 8.82603 28.4326
rtibia 25.7446
rfoot -35.7829 -32.4906
rtoes -1.00098
lfemur -33.4504 -0.328964 -20.4117
ltibia 75.7575
lfoot -15.1479 12.7917
ltoes -16.0559
46
root 9.34312 15.3426 -3.18517 -7.65511 -67.6461 4.60363
lowerback 10.3801 0.461776 5.61239
upperback 7.09653 0.828117 0.399645
thorax 1.68582 0.504591 -2.80905
lowerneck -7.43229 4.85269 9.81571
upperneck 24.4638 6.59429 -7.76113
head 9.50371 3.04709 -3.68671
rclavicle -6.22196e-014 1.98785e-014
rhumerus -33.4721 9.44398 -87.0587
rradius 58.7686
rwrist -8.68292
rhand -13.3983 -1.58211
rfingers 7.12502
rthumb 12.7093 -31.1754
lclavicle -6.22196e-014 1.98785e-014
lhumerus -34.1476 3.30952 85.2741
lradius 38.4897
lwrist 3.10008
lhand -18.66 11.8259
lfingers 7.12502
lthumb 7.63333 41.6682
rfemur -1.15648 8.80514 28.3415
rtibia 24.3656
rfoot -35.0977 -33.0641
rtoes -0.6227
lfemur -36.3154 0.930366 -20.6984
ltibia 79.7408
lfoot -15.8572 13.0154
ltoes -15.3655
47
root 9.33239 15.3791 -3.2139 -8.43443 -67.3624 5.24881
lowerback 10.8256 0.509316 5.50193
upperback 7.2472 0.896078 0.315802
thorax 1.60773 0.533653 -2.84517
lowerneck -7.45099 4.78633 9.79466
upperneck 24.2549 6.47862 -7.66332
head 9.41767 3.00447 -3.65707
rclavicle -8.11041e-014 7.15625e-015
rhumerus -33.1426 9.68197 -86.9325
rradius 59.6665
rwrist -8.37396
rhand -13.6672 -1.5231
rfingers 7.12502
rthumb 12.45 -31.1323
lclavicle -8.11041e-014 7.15625e-015
lhumerus -33.9581 2.98597 85.1551
lradius 38.251
lwrist 3.00411
lhand -18.7171 11.413
lfingers 7.12502
lthumb 7.57826 41.2572
rfemur -0.182449 8.7324 28.2001
rtibia 22.8692
rfoot -34.3631 -33.518
rtoes -0.223099
lfemur -39.2975 2.14118 -21.0686
ltibia 83.699
lfoot -16.4328 13.1557
ltoes -15.134
48
root 9.31957 15.4153 -3.24181 -9.11749 -67.1019 5.79577
lowerback 11.2721 0.574419 5.40103
upperback 7.38357 0.987714 0.239296
thorax 1.517 0.574283 -2.88212
lowerneck -7.5043 4.71076 9.77377
upperneck 24.0921 6.34967 -7.56932
head 9.3537 2.95402 -3.63071
rclavicle -3.45885e-014 0
rhumerus -32.8343 9.96734 -86.7674
rradius 60.6249
rwrist -8.26167
rhand -13.9162 -1.45446
rfingers 7.12502
rthumb 12.2099 -31.0781
lclavicle -3.45885e-014 0
lhumerus -33.7557 2.69144 85.0252
lradius 37.9336
lwrist 2.84113
lhand -18.7715 10.9196
lfingers 7.12502
lthumb 7.52568 40.7658
rfemur 0.861517 8.61696 28.0814
rtibia 21.2477
rfoot -33.5933 -33.8843
rtoes 0.158522
lfemur -42.4 3.31956 -21.4408
ltibia 87.595
lfoot -16.8817 13.1711
ltoes -15.4079
